<?xml version="1.0" standalone="no"?>
<!DOCTYPE svg PUBLIC "-//W3C//DTD SVG 20010904//EN"
 "http://www.w3.org/TR/2001/REC-SVG-20010904/DTD/svg10.dtd">
<svg version="1.0" xmlns="http://www.w3.org/2000/svg"
 width="128.000000pt" height="128.000000pt" viewBox="0 0 128.000000 128.000000"
 preserveAspectRatio="xMidYMid meet">

<g transform="translate(0.000000,128.000000) scale(0.100000,-0.100000)"
fill="#000000" stroke="none">
<path d="M891 1178 c-30 -5 -79 -19 -110 -32 -44 -19 -80 -26 -166 -30 -117
-5 -170 -18 -256 -61 -74 -38 -113 -71 -164 -138 -173 -227 -116 -565 122
-723 212 -141 507 -127 652 31 52 56 44 79 -9 31 -104 -94 -266 -135 -412
-105 -178 37 -338 190 -377 360 -49 211 77 435 286 511 45 16 84 21 173 22
105 1 120 4 167 29 77 40 85 38 66 -20 l-15 -48 138 -230 c84 -140 137 -239
136 -253 -3 -33 -30 -71 -65 -89 -28 -14 -31 -14 -40 3 -23 41 -115 128 -191
181 -180 125 -244 189 -248 249 -2 38 -9 49 -19 33 -40 -64 44 -189 216 -324
78 -61 174 -155 208 -204 l16 -24 66 32 c77 38 117 85 119 139 0 30 -24 82
-129 272 -79 143 -128 244 -127 258 1 13 8 48 16 78 8 30 11 55 8 57 -4 2 -31
0 -61 -5z"/>
</g>
</svg>
